<svg xmlns="http://www.w3.org/2000/svg" viewBox="0 0 88.84 94.79"><defs><style>.cls-1{fill:#222221;}.cls-2{fill:#d68063;}.cls-3{fill:#f5f5f5;}.cls-4{fill:#f1d7c9;}.cls-5{fill:#e7bc3d;}.cls-6{fill:#dba1a0;}.cls-7{fill:#ca5039;}.cls-8{fill:#a0bf38;}</style></defs><g id="Layer_2" data-name="Layer 2"><g id="OBJECTS"><path class="cls-1" d="M88.74,45.92a39.85,39.85,0,0,1-4.15,21.31A87.62,87.62,0,0,1,69.78,87.4C64.64,92.71,57.91,93.29,50.86,94a167.41,167.41,0,0,1-28.32.38c-1.83-.13-4-.18-6.31-.35a.43.43,0,0,1-.7.23c-.09-.1-.16-.21-.25-.31l-.88-.09a.57.57,0,0,1-1,.32l-.5-.49c-4-.56-7.91-1.73-10.17-4.58-4.17-5.25-2.42-14.92-2.4-21,0-10.15-.28-20.55.8-30.65a.66.66,0,0,1,.14-.33,3.56,3.56,0,0,1-1-1.92c-.41-2.69,1.63-4.7,4-5.55a4.21,4.21,0,0,1-1-4.2,5.22,5.22,0,0,1,4.39-3.34,3.2,3.2,0,0,1-.26-3c.84-2,3.54-1.8,4.23-3.45.29-.68-.13-1.95.2-2.81a5.93,5.93,0,0,1,1.85-2.44,8.87,8.87,0,0,1,6-1.78,4.83,4.83,0,0,1,2.07-5.38,5,5,0,0,1,5.62.41A5,5,0,0,1,30.94.81c1.8-.42,2.68.3,4.25.76,1.9.56,3.39-1.24,5.46-1.3a6.51,6.51,0,0,1,4.69,1.81c2.83-2.05,7.1-3.5,8.59.19C55.75,1,58-.29,60.24.45a4,4,0,0,1,3,4.2l.15,0A4.71,4.71,0,0,1,67.74.16,5,5,0,0,1,72.3,2.9c2.59-1.61,5.88-2.9,8.75-1.3a4.45,4.45,0,0,1,2.08,5.53c2.21.56,4.46,1.88,4.7,4.28A4.19,4.19,0,0,1,86,15.32a1,1,0,0,1,.23.55C87.09,25.88,88.12,35.89,88.74,45.92ZM85.05,62c2-5.27,2.21-10.58,2-16-1.87-.49-3.93-3.72-4.74-4.87A24.57,24.57,0,0,1,78.1,30.34v0c0-.07,0-.14-.07-.2a4.44,4.44,0,0,1-3,2.88A45.81,45.81,0,0,0,82.9,66.77,40.6,40.6,0,0,0,85.05,62ZM80.6,15.4c2.35-.48,6.3-1.42,5.82-4.61C86.15,9,84.29,8.11,82.63,7.55c-.06.07-.11.15-.18.22-.56.65-1.69-.22-1.19-.91a.38.38,0,0,1,.29-.44c1.29-2.32-1-4.46-3.42-4.55-2-.08-3.82.95-5.53,1.95,0,0,0,.07,0,.11,0,.58-.9.92-1.18.32-.69-1.54-1.53-3-3.47-3.08s-3.12,1.6-3.49,3.31c.13,0,.26.06.38.11.51.19.48,1-.13,1-.93,0-1.83-.27-2.76-.32a19.71,19.71,0,0,0-2.77.06c-.57,0-.7-.91-.14-1a18.46,18.46,0,0,1,2.53-.22c-2.27-2.46-4.33-3-6.18-1.62a14,14,0,0,0-1.49,1.07.69.69,0,0,1-1-.42c-1.1-5-6.45-1-8.36.52-.5.42-1.2-.24-.73-.73l.38-.36c-2.16-1.5-4-1.3-6.42-.15-.64.32-.94.89-1.77.82s-1.18-.76-1.85-1.09a4.49,4.49,0,0,0-5.83,1.63.62.62,0,0,1-.37.25c0,.47-.44.91-1,.58-1.32-.85-2.7-1.44-4.24-.71A3.9,3.9,0,0,0,20.8,8.15a.53.53,0,0,1-.53.65.52.52,0,0,1-.32.33c-1.65.6-3.43.67-4.89,1.75a4,4,0,0,0-1.86,3.86c0,.31.24.63.21.94a1.91,1.91,0,0,1-.5,1.37,2.3,2.3,0,0,1-1.07.5l-.72.13q-2.2.29-1.5,3.77a.68.68,0,0,1,.12.12.47.47,0,0,1,.08.91.69.69,0,0,1-.93.22l-.07,0c-1.55.27-3.22.84-3.93,2.32a2.74,2.74,0,0,0,1.43,3.74A.64.64,0,0,1,6,29.9a1.93,1.93,0,0,1-.36-.06c-1.73.72-3.53,1.6-3.91,3.63s1.51,3.61,3.33,2.43c.59-.39,1.15.42.76.92a2.64,2.64,0,0,1,.37-.2.43.43,0,0,1,.41.71c-3,2.6,1.59,4.68,3.92,3.56.19-.09.37-.21.56-.32.26-.32.53-.64.8-.94a.33.33,0,0,1,.45,0c.36-.31.71-.64,1.05-.95a.73.73,0,0,1,1.14.15c1.29,3,4.6,3.27,6.78,1a.58.58,0,0,1,.73-.1.55.55,0,0,1,.42.15c3.55,3.06,8.36,2.95,11.4-.63a5.08,5.08,0,0,1-1.16-.5c-.31-.19-.21-.79.2-.74.92.12,1.81.38,2.75.42a13.06,13.06,0,0,0,3-.39.57.57,0,0,1,.3,1.1,7.57,7.57,0,0,1-1.67.38q3.73,4.2,7.37-.7a.76.76,0,0,1,1.19-.15,6,6,0,0,0,9.52-1.09.72.72,0,0,1,1-.23h0a.75.75,0,0,1,.26.24c3,3.57,8.16,2.28,8.8-2.43a.78.78,0,0,1,1.14-.46,3.09,3.09,0,0,0,3.77.39,4.83,4.83,0,0,0,.49-.37c0-.13,0-.26,0-.39A.45.45,0,0,1,71.5,34a3.64,3.64,0,0,0,.77-2.6A.71.71,0,0,1,72.09,30l.4-.09a.71.71,0,0,1,.72.19,3.56,3.56,0,0,1,.59,1c2-.32,3-1.79,2.87-4a4.46,4.46,0,0,1-2.24.7.47.47,0,0,1-.12-.91,4.51,4.51,0,0,0,1.87-1.1,3.75,3.75,0,0,0,.37-.44.73.73,0,0,1,.18-.77,1.45,1.45,0,0,1,.33-.22l.16-.39c.36-.83,1.49-.19,1.35.56a2.5,2.5,0,0,1-.11.39,5.82,5.82,0,0,0,2.31-.73A3.69,3.69,0,0,0,82.4,22,4.12,4.12,0,0,0,80,17.32a.51.51,0,0,1,.1-.9A.7.7,0,0,1,80.6,15.4Zm5.72,24.94q-1-12-2-24a17.57,17.57,0,0,1-3,1,5.15,5.15,0,0,1,2.06,6.47,5.32,5.32,0,0,1-2.45,2.42C80.81,30.79,83.92,35.94,86.32,40.34Zm-1.19,2.75c1.46.81,1.29,1.16.83-.94-1.19-5.45-6.26-9.7-6.22-15.51a4.27,4.27,0,0,1-2.1.05,3.41,3.41,0,0,1-.39.37.4.4,0,0,1,.23.19,3.37,3.37,0,0,1,.43,1.37.32.32,0,0,1,.21.24c.06.3.11.6.17.9a.37.37,0,0,1,.44.33,23.65,23.65,0,0,0,3,8.54C82.53,40,83.71,42.3,85.13,43.09ZM82,67.94c-4.87-2.4-7.17-8.85-9-13.64a38,38,0,0,1-2.4-17.52,5.36,5.36,0,0,1-3.91.17,6.1,6.1,0,0,1-7.95,4.13.65.65,0,0,1,.23.66,58.35,58.35,0,0,0-.69,20.37.76.76,0,0,1-.57.86.66.66,0,0,1-.7-.33c-4-6.23-5.67-14-3.26-21.1a7.32,7.32,0,0,1-8.31-.81,5.58,5.58,0,0,1-8,1.22,47.59,47.59,0,0,0-4.12,29.76c2.27-.06,4.52-.21,6.8-.31A.91.91,0,0,1,41,72.53a5.48,5.48,0,0,1-4.09,7.58,4.07,4.07,0,0,1-1.21,0,45.23,45.23,0,0,0,7.08,12.2.65.65,0,0,1,.14.36q4-.19,7.91-.58c3.67-.36,7.65-.58,11.18-1.79C59.3,87.37,57.93,83,57.4,79a13.4,13.4,0,0,0,2.37-.12c.7,1,1.42,2.07,2.17,3.08s1.72,2.25,2.62,3.35c.11.13.65.82,1,1.41a.41.41,0,0,1,.22-.1l.17,0a.53.53,0,0,1,.6.24.83.83,0,0,1,.11.73,45.7,45.7,0,0,0,5.42-5.93A95.39,95.39,0,0,0,82,67.94ZM73.44,51.51c1.25,3.88,3.16,9.45,6.26,13A46.56,46.56,0,0,1,73.2,34.9a6,6,0,0,1-1.49,1.33A38.14,38.14,0,0,0,73.44,51.51ZM66.07,88.07c-1.69-.23-2.91-2.59-3.89-3.82-1.2-1.51-2.31-3.07-3.39-4.67.72,3.73,2.33,6.8,4,10.37A14,14,0,0,0,66.07,88.07ZM57.69,41.38a.58.58,0,0,1,.6-.49,6.36,6.36,0,0,1-2.07-1.53,8.37,8.37,0,0,1-1.83,1.79s0,0,0,.05c-.87,6.28-.45,12.18,2.18,17.74A58.65,58.65,0,0,1,57.69,41.38ZM39.48,75.79a.66.66,0,0,1-.44,0l-.11,0h0a2.09,2.09,0,0,1-.22.2,4.21,4.21,0,0,1,0,.71,1.88,1.88,0,0,1-.32.9A3.69,3.69,0,0,0,39.48,75.79Zm-4,17.06c2,0,4-.08,6-.16a47.37,47.37,0,0,1-7.38-13.18c-2.2-1.22-3.59-4-2.47-6.4a.56.56,0,0,1,.18-.22.88.88,0,0,1,.22-1,46.41,46.41,0,0,1,4.67-30.72A6.6,6.6,0,0,1,35.82,40l-.21,0a.24.24,0,0,1-.06.11A9.26,9.26,0,0,1,33.67,42a.53.53,0,0,1,0,.12C28.43,57.46,25.57,78.67,35.51,92.85Zm-7.3-.08q3.09.11,6.18.09c-10.27-13-7.86-35.25-2.34-49.85a8.68,8.68,0,0,1-10-1.63,5,5,0,0,1-7.79.12,4.29,4.29,0,0,1-.55-.72A14.65,14.65,0,0,1,11,42.59c-8.79,14.3-9.53,36.33,1.84,49.3l.91.16C2.83,77.34,6.61,57.31,13.58,41.6a.38.38,0,0,1,.64-.09.48.48,0,0,1,.11.53c-7,16.51-9.37,34.77.82,50.21C19.86,92.84,24.85,92.65,28.21,92.77ZM9.36,43.19a4.24,4.24,0,0,1-3.73-.73,3.23,3.23,0,0,1-.69-4.54,2.88,2.88,0,0,1-2.62-.06c.31,8.12-.2,16.32-.22,24.45v4q0,3.76,0,7.52c0,3.55-.59,8.36.74,11.68s4.32,5,8,6C5.55,84.93,2.92,75.6,2.92,66.29,2.92,57.86,5.07,49.46,9.36,43.19Z"/><path class="cls-2" d="M87,46c.26,5.42,0,10.73-2,16a40.6,40.6,0,0,1-2.15,4.75A45.81,45.81,0,0,1,75.06,33a4.44,4.44,0,0,0,3-2.88c0,.06,0,.13.07.2v0a24.57,24.57,0,0,0,4.16,10.81C83.07,42.3,85.13,45.53,87,46Z"/><path class="cls-3" d="M86.42,10.79C86.9,14,83,14.92,80.6,15.4a.7.7,0,0,0-.49,1,.51.51,0,0,0-.1.9A4.12,4.12,0,0,1,82.4,22a3.69,3.69,0,0,1-1.63,2.18,5.82,5.82,0,0,1-2.31.73,2.5,2.5,0,0,0,.11-.39c.14-.75-1-1.39-1.35-.56l-.16.39a1.45,1.45,0,0,0-.33.22.73.73,0,0,0-.18.77,3.75,3.75,0,0,1-.37.44,4.51,4.51,0,0,1-1.87,1.1.47.47,0,0,0,.12.91,4.46,4.46,0,0,0,2.24-.7c.17,2.22-.82,3.69-2.87,4a3.56,3.56,0,0,0-.59-1,.71.71,0,0,0-.72-.19l-.4.09a.71.71,0,0,0,.18,1.38A3.64,3.64,0,0,1,71.5,34a.45.45,0,0,0-.61.32c0,.13,0,.26,0,.39a4.83,4.83,0,0,1-.49.37,3.09,3.09,0,0,1-3.77-.39.78.78,0,0,0-1.14.46c-.64,4.71-5.85,6-8.8,2.43a.75.75,0,0,0-.26-.24h0a.72.72,0,0,0-1,.23,6,6,0,0,1-9.52,1.09.76.76,0,0,0-1.19.15q-3.65,4.9-7.37.7A7.57,7.57,0,0,0,39,39.1a.57.57,0,0,0-.3-1.1,13.06,13.06,0,0,1-3,.39c-.94,0-1.83-.3-2.75-.42-.41,0-.51.55-.2.74a5.08,5.08,0,0,0,1.16.5c-3,3.58-7.85,3.69-11.4.63a.55.55,0,0,0-.42-.15.58.58,0,0,0-.73.1c-2.18,2.3-5.49,2-6.78-1a.73.73,0,0,0-1.14-.15c-.34.31-.69.64-1.05.95a.33.33,0,0,0-.45,0c-.27.3-.54.62-.8.94-.19.11-.37.23-.56.32-2.33,1.12-7-1-3.92-3.56a.43.43,0,0,0-.41-.71,2.64,2.64,0,0,0-.37.2c.39-.5-.17-1.31-.76-.92-1.82,1.18-3.72-.38-3.33-2.43s2.18-2.91,3.91-3.63A1.93,1.93,0,0,0,6,29.9a.64.64,0,0,0,.32-1.18A2.74,2.74,0,0,1,4.89,25c.71-1.48,2.38-2.05,3.93-2.32l.07,0a.69.69,0,0,0,.93-.22.47.47,0,0,0-.08-.91.68.68,0,0,0-.12-.12q-.7-3.48,1.5-3.77l.72-.13a2.3,2.3,0,0,0,1.07-.5,1.91,1.91,0,0,0,.5-1.37c0-.31-.21-.63-.21-.94a4,4,0,0,1,1.86-3.86C16.52,9.8,18.3,9.73,20,9.13a.52.52,0,0,0,.32-.33.53.53,0,0,0,.53-.65,3.9,3.9,0,0,1,1.95-4.24c1.54-.73,2.92-.14,4.24.71.51.33.94-.11,1-.58a.62.62,0,0,0,.37-.25,4.49,4.49,0,0,1,5.83-1.63c.67.33,1.08,1,1.85,1.09s1.13-.5,1.77-.82c2.37-1.15,4.26-1.35,6.42.15l-.38.36c-.47.49.23,1.15.73.73,1.91-1.57,7.26-5.48,8.36-.52a.69.69,0,0,0,1,.42A14,14,0,0,1,55.4,2.5c1.85-1.4,3.91-.84,6.18,1.62a18.46,18.46,0,0,0-2.53.22c-.56.09-.43,1,.14,1A19.71,19.71,0,0,1,62,5.28c.93,0,1.83.28,2.76.32.61,0,.64-.82.13-1-.12,0-.25-.07-.38-.11C64.84,2.77,66,1.15,68,1.17s2.78,1.54,3.47,3.08c.28.6,1.16.26,1.18-.32,0,0,0-.08,0-.11,1.71-1,3.5-2,5.53-1.95,2.45.09,4.71,2.23,3.42,4.55a.38.38,0,0,0-.29.44c-.5.69.63,1.56,1.19.91.07-.07.12-.15.18-.22C84.29,8.11,86.15,9,86.42,10.79ZM61.79,22.37c1-1.93,3.93-6,2.12-8.29s-8.1-1.86-10.65-1.87c-6.24,0-12.32.62-18.43-1.05-.66-.18-1.48.48-1.2,1.2a2.56,2.56,0,0,0,.11.24c-3.28,3.91-11.85,14.53-6.07,18.06,3.24,2,9.31,1.76,12.95,2,4.4.23,10.09,1.24,14.13-1C58.2,29.69,60.07,25.73,61.79,22.37Z"/><path class="cls-2" d="M84.33,16.33q1,12,2,24c-2.4-4.4-5.51-9.55-5.39-14.14a5.32,5.32,0,0,0,2.45-2.42,5.15,5.15,0,0,0-2.06-6.47A17.57,17.57,0,0,0,84.33,16.33Z"/><path class="cls-4" d="M86,42.15c.46,2.1.63,1.75-.83.94s-2.6-3.06-3.42-4.46a23.65,23.65,0,0,1-3-8.54.37.37,0,0,0-.44-.33c-.06-.3-.11-.6-.17-.9a.32.32,0,0,0-.21-.24,3.37,3.37,0,0,0-.43-1.37.4.4,0,0,0-.23-.19,3.41,3.41,0,0,0,.39-.37,4.27,4.27,0,0,0,2.1-.05C79.7,32.45,84.77,36.7,86,42.15Z"/><path class="cls-2" d="M72.75,54.3c1.79,4.79,4.09,11.24,9,13.64a95.39,95.39,0,0,1-9.86,13.7,45.7,45.7,0,0,1-5.42,5.93.83.83,0,0,0-.11-.73.53.53,0,0,0-.6-.24l-.17,0a.41.41,0,0,0-.22.1c-.4-.59-.94-1.28-1-1.41-.9-1.1-1.78-2.21-2.62-3.35s-1.47-2-2.17-3.08a2.76,2.76,0,0,0,.4-.06c2-.37,2-3.69,0-4.06a25.8,25.8,0,0,0-5.2-.12H54.1l0-1.92a17.47,17.47,0,0,0,5-.63A.55.55,0,0,0,58.93,71c-.73-.1-1.45-.15-2.19-.2a15,15,0,0,0,3.49-1.14c.67-.32.2-1.4-.5-1.19a53.85,53.85,0,0,1-6.6,1.63c2-1.39,4.1-2.73,6.19-4a.91.91,0,0,0-1-1.54h0L57.46,63a.76.76,0,0,0,.57-.86,58.35,58.35,0,0,1,.69-20.37.65.65,0,0,0-.23-.66A6.1,6.1,0,0,0,66.44,37a5.36,5.36,0,0,0,3.91-.17A38,38,0,0,0,72.75,54.3Z"/><path class="cls-4" d="M79.7,64.49c-3.1-3.53-5-9.1-6.26-13a38.14,38.14,0,0,1-1.73-15.28A6,6,0,0,0,73.2,34.9,46.56,46.56,0,0,0,79.7,64.49Z"/><path class="cls-4" d="M62.18,84.25c1,1.23,2.2,3.59,3.89,3.82A14,14,0,0,1,62.83,90c-1.71-3.57-3.32-6.64-4-10.37C59.87,81.18,61,82.74,62.18,84.25Z"/><path class="cls-1" d="M63.91,14.08c1.81,2.27-1.14,6.36-2.12,8.29-1.72,3.36-3.59,7.32-7,9.24-4,2.25-9.73,1.24-14.13,1-3.64-.2-9.71,0-12.95-2-5.78-3.53,2.79-14.15,6.07-18.06a2.56,2.56,0,0,1-.11-.24c-.28-.72.54-1.38,1.2-1.2,6.11,1.67,12.19,1,18.43,1.05C55.81,12.22,62.05,11.76,63.91,14.08Zm-2.38,4.37a7.28,7.28,0,0,0,.22-1.91,26,26,0,0,1-16,7.53,71.48,71.48,0,0,1,4.6,6.47.58.58,0,0,1,.05.14,11,11,0,0,0,7-4.52C58.8,24.09,61,20.9,61.53,18.45ZM61,14.91c-.88-.59-2.45-.5-4.3-.63s-3.43-.11-5.14-.09c-5.16.06-10.17.33-15.19-.67,2,3.33,5.48,5.92,7.94,8.8l.78.95a.49.49,0,0,1,.41-.39A28.07,28.07,0,0,0,61,14.91ZM34.12,30.2c4.16.52,9.55,1.42,14.3.83a83,83,0,0,0-8.86-11,30.55,30.55,0,0,1-5.06-5.88A65.7,65.7,0,0,0,30,21.27c-1.11,2.09-3.48,6-.63,8.13C30.45,30.18,32.9,30,34.12,30.2Z"/><path class="cls-5" d="M61.75,16.54a7.28,7.28,0,0,1-.22,1.91c-.57,2.45-2.73,5.64-4.1,7.71a11,11,0,0,1-7,4.52.58.58,0,0,0-.05-.14,71.48,71.48,0,0,0-4.6-6.47A26,26,0,0,0,61.75,16.54Z"/><path class="cls-1" d="M60,68.49c.7-.21,1.17.87.5,1.19A15,15,0,0,1,57,70.82c.74.05,1.46.1,2.19.2a.55.55,0,0,1,.14,1.08,17.47,17.47,0,0,1-5,.63c-1.54,0-3.09-.13-4.55-.27a1,1,0,0,1-.48-1.8,81.06,81.06,0,0,1,9.3-6.12l.06,0a.91.91,0,0,1,.91,1.57c-2.09,1.31-4.15,2.65-6.19,4A53.85,53.85,0,0,0,60,68.49Z"/><path class="cls-6" d="M60.17,74.76c2,.37,2,3.69,0,4.06a2.76,2.76,0,0,1-.4.06c-.48-.72-1-1.44-1.42-2.17-.3-.49-1.19-.33-1.15.31s.11,1.31.2,2c-.81,0-1.63,0-2.43-.07-1.56,0-3.28.07-4.45-1.1a1.49,1.49,0,0,1,0-2.08c1-1,2.47-1.08,3.86-1.1H55A25.8,25.8,0,0,1,60.17,74.76Z"/><path class="cls-6" d="M58.35,76.71c.46.73.94,1.45,1.42,2.17A13.4,13.4,0,0,1,57.4,79c-.09-.67-.16-1.34-.2-2S58.05,76.22,58.35,76.71Z"/><path class="cls-2" d="M57.14,79c.53,4,1.9,8.37,4.64,11.26-3.53,1.21-7.51,1.43-11.18,1.79q-3.94.39-7.91.58a.65.65,0,0,0-.14-.36,45.23,45.23,0,0,1-7.08-12.2,4.07,4.07,0,0,0,1.21,0,5.48,5.48,0,0,0,4.09-7.58.91.91,0,0,0-.87-1.13c-2.28.1-4.53.25-6.8.31A47.59,47.59,0,0,1,37.22,42a5.58,5.58,0,0,0,8-1.22,7.32,7.32,0,0,0,8.31.81c-2.41,7.12-.73,14.87,3.26,21.1a.66.66,0,0,0,.7.33l.89,1.57a81.06,81.06,0,0,0-9.3,6.12,1,1,0,0,0,.48,1.8c1.46.14,3,.27,4.55.27l0,1.92c-1.39,0-2.84.08-3.86,1.1a1.49,1.49,0,0,0,0,2.08c1.17,1.17,2.89,1.08,4.45,1.1C55.51,79,56.33,79,57.14,79Z"/><path class="cls-4" d="M58.29,40.89a.58.58,0,0,0-.6.49,58.65,58.65,0,0,0-1.11,17.56c-2.63-5.56-3-11.46-2.18-17.74,0,0,0,0,0-.05a8.37,8.37,0,0,0,1.83-1.79A6.36,6.36,0,0,0,58.29,40.89Z"/><path class="cls-7" d="M56.68,14.28c1.85.13,3.42,0,4.3.63a28.07,28.07,0,0,1-15.5,8,.49.49,0,0,0-.41.39l-.78-.95c-2.46-2.88-6-5.47-7.94-8.8,5,1,10,.73,15.19.67C53.25,14.17,55,14.15,56.68,14.28Z"/><path class="cls-8" d="M48.42,31c-4.75.59-10.14-.31-14.3-.83-1.22-.16-3.67,0-4.72-.8-2.85-2.12-.48-6,.63-8.13a65.7,65.7,0,0,1,4.47-7.14A30.55,30.55,0,0,0,39.56,20,83,83,0,0,1,48.42,31Z"/><path class="cls-4" d="M41.49,92.69c-2,.08-4,.14-6,.16-9.94-14.18-7.08-35.39-1.85-50.72a.53.53,0,0,0,0-.12,9.26,9.26,0,0,0,1.88-1.92.24.24,0,0,0,.06-.11l.21,0a6.6,6.6,0,0,0,.89,1.22A46.41,46.41,0,0,0,32,71.94a.88.88,0,0,0-.22,1,.56.56,0,0,0-.18.22c-1.12,2.42.27,5.18,2.47,6.4A47.37,47.37,0,0,0,41.49,92.69Z"/><path class="cls-2" d="M34.39,92.86q-3.09,0-6.18-.09c-3.36-.12-8.35.07-13.06-.52C5,76.81,7.28,58.55,14.33,42a.48.48,0,0,0-.11-.53h0A5,5,0,0,0,22,41.38a8.68,8.68,0,0,0,10,1.63C26.53,57.61,24.12,79.85,34.39,92.86ZM22.82,70.53a.84.84,0,0,0,0-1.45c-3.28-2-6.56-4-9.88-6a.89.89,0,0,0-.9,1.54c2.18,1.33,4.38,2.63,6.59,3.93-1.95-.4-3.87-.85-5.83-1.34a.7.7,0,0,0-.38,1.35,22.93,22.93,0,0,0,6.82,1.48,17.48,17.48,0,0,1-7.32.28.6.6,0,0,0-.32,1.16A16.76,16.76,0,0,0,22.82,70.53Zm-2.4,8.14c2.42-.45,1.87-4.42-.58-4.3a39.35,39.35,0,0,1-7.2-.2c-2.38-.31-2.74,3.46-.55,4.09A18.33,18.33,0,0,0,20.42,78.67Z"/><path class="cls-1" d="M22.82,69.08a.84.84,0,0,1,0,1.45,16.76,16.76,0,0,1-11.22,1,.6.6,0,0,1,.32-1.16,17.48,17.48,0,0,0,7.32-.28,22.93,22.93,0,0,1-6.82-1.48.7.7,0,0,1,.38-1.35c2,.49,3.88.94,5.83,1.34-2.21-1.3-4.41-2.6-6.59-3.93a.89.89,0,0,1,.9-1.54C16.26,65,19.54,67.06,22.82,69.08Z"/><path class="cls-6" d="M19.84,74.37c2.45-.12,3,3.85.58,4.3a18.33,18.33,0,0,1-8.33-.41c-2.19-.63-1.83-4.4.55-4.09A39.35,39.35,0,0,0,19.84,74.37Z"/><path class="cls-4" d="M14.23,41.5h0a.38.38,0,0,0-.64.09c-7,15.71-10.75,35.74.19,50.45l-.91-.16c-11.37-13-10.63-35-1.84-49.3a14.65,14.65,0,0,0,2.66-1.81A4.29,4.29,0,0,0,14.23,41.5Z"/><path class="cls-2" d="M5.63,42.48a4.24,4.24,0,0,0,3.73.73c-4.29,6.27-6.44,14.67-6.44,23.1H2.1v-4c0-8.13.53-16.33.22-24.45a2.88,2.88,0,0,0,2.62.06A3.23,3.23,0,0,0,5.63,42.48Z"/><path class="cls-2" d="M10.91,91.46c-3.65-1-6.68-2.75-8-5.95s-.71-8.13-.74-11.68q0-3.75,0-7.52H3C3,75.62,5.62,85,10.91,91.46Z"/></g></g></svg>