<svg xmlns="http://www.w3.org/2000/svg" viewBox="0 0 121.99 89.34"><defs><style>.cls-1{fill:#222221;}.cls-2{fill:#f5f5f5;}.cls-3{fill:#d68063;}.cls-4{fill:#f2ddd7;}.cls-5{fill:#dba1a0;}</style></defs><g id="Layer_2" data-name="Layer 2"><g id="OBJECTS"><path class="cls-1" d="M119.12,55.43a5.14,5.14,0,0,1,2.3,5.19,4.71,4.71,0,0,1-4.21,3.49,1.6,1.6,0,0,1-.49.65,6.24,6.24,0,0,1-1.25,6.69,6.11,6.11,0,0,1-5.93,1.46c.31,2.51-2.71,6.75-4.11,7.72-2.91,2-6.55,2.29-10,2.08-1.93-.12-4-.17-5.5-1.35-1.52,3.8-6.91,5-9.63,2A8.77,8.77,0,0,1,74.5,88.9a11.39,11.39,0,0,1-11.21-3.13,6.82,6.82,0,0,1-11.07-.69c-3.47,2.12-7.74,1.61-10-1.79-5.34,4.5-16.66,4.7-18.78-3.2A7,7,0,0,1,13,76.48c-3.75.88-7.1-2.6-5.75-6.12C5.18,70.8,3,69.2,2,67.3.45,64.2,2,60.61,3.64,57.84A3.84,3.84,0,0,1,.35,54.52c-.35-2,.79-3.7,2.22-5C-.15,48,.77,43.71,3,41.47l.08,0a11.28,11.28,0,0,1-2.84-10C1.55,23.5,8.85,16.59,15,12A62.18,62.18,0,0,1,40.68,1.19c20.17-3.71,41.22,1.68,59.54,10.1C108.13,14.93,116,20,119.39,28.44a19,19,0,0,1,1.13,11.18,24.88,24.88,0,0,1-1.38,4.2h0A7.35,7.35,0,0,1,119.12,55.43Zm.69,5c.53-2.1-1.17-3.25-2.81-3.93a.76.76,0,0,1,.2-1.48,3.47,3.47,0,0,1,.56,0c3.18-2.61,3.22-6.43.7-9.53-1.25,2.91-2.51,5.78-2.52,9.11a1,1,0,0,1-1.66.71.79.79,0,0,1-1.1.91c-23-10.84-47.72-16.63-73.24-15.25A139.45,139.45,0,0,0,22.18,43c-4.08.75-8.27,1.91-12.45,1.49a11,11,0,0,1-5.68-2.19C2.94,44,1,48,4.51,48.25A.9.9,0,0,1,5,49.91,8.35,8.35,0,0,0,3.2,51.34c-1.79,1.75-1.32,3.41,1.4,5a.81.81,0,0,1,.49,1.4.56.56,0,0,1,0,.28c-.83,2-1.92,4-1.92,6.22,0,2.69,1.92,4.78,4.66,4.33a.88.88,0,0,1,.81.33.6.6,0,0,1,.41.89c-1.53,3.09,1,6.27,4.35,4.9a.82.82,0,0,1,1,.58c1.07,4,5,5.33,8.53,3.3a.72.72,0,0,1,.8,0,.63.63,0,0,1,.78.44c2.42,7.25,12.07,7,16.86,2.61a1.2,1.2,0,0,1,.21-.13.57.57,0,0,1,1,0c.06.1.13.19.2.29l.1.14c2.17,3,5.71,4,9,1.28a.91.91,0,0,1,1.4.18c1.83,3.52,5.94,4.07,8.81,1.14a.8.8,0,0,1,1.21,0,.48.48,0,0,1,.39.08c5.79,3.6,13,4.7,15.37-3.36a.78.78,0,0,1,1.52.21h0c2.6,3,7.07,2.58,8-1.71a.82.82,0,0,1,1.54-.14c2,2.23,8.42,1.62,10.87,1a9,9,0,0,0,5.31-3.49c.55-.82,2-4,.89-4.27s-.77-1.88.23-1.75a3.69,3.69,0,0,1,.76.18.64.64,0,0,1,.49,0c4.21,1.9,8.6-2.3,6.16-6.48a.84.84,0,0,1,.22-1.06.69.69,0,0,1,.68-1.11l.18,0a.85.85,0,0,1,.56.06A3.3,3.3,0,0,0,119.81,60.38Zm-2.16-18.21a18.27,18.27,0,0,0-2.11-16.84A23.16,23.16,0,0,0,113.81,23c2,4.52,4.56,8.81,2.59,13.91s-6.93,9.78-10.86,13.83c2.85,1.27,5.65,2.63,8.4,4.12a.87.87,0,0,1,.11.09.91.91,0,0,1-.09-.41C114,50,116.09,46.36,117.65,42.17Zm-3.15-5.09c2.75-5.89-1.25-10.61-2.71-16.17v0A33.42,33.42,0,0,0,108,17.76c.71,2.74,3.36,5.27,4,8.13a11.77,11.77,0,0,1-.39,6.75c-2.13,5.92-8.38,11.1-13.16,15.21,1.84.69,3.66,1.44,5.46,2.21C107.51,46,112.19,42,114.5,37.08Zm-4.93-3.89c2.3-5,.31-8.79-2-13.18-.79-1.5-1.06-1.76-.77-3.08-5.82-3.82-12.8-6.32-19-8.5-1.19-.42-2.38-.82-3.59-1.21,3.28,5,9.58,9.57,7.76,16.12-.83,3-3.26,5.55-5.18,7.87a80.28,80.28,0,0,1-9.58,10.1.81.81,0,0,1-1.15-1.14c4.49-4.83,11.06-10,13.66-16.17,2.93-6.95-4.83-11.5-7.3-17.35q-2.83-.87-5.72-1.59c5.13,4.38,12.17,10.8,10,17.35-1.15,3.54-4.16,6.75-6.56,9.51A53.39,53.39,0,0,1,71,40.63q2.79.45,5.55,1a138.07,138.07,0,0,1,20.3,5.62C100.94,42.8,107,38.76,109.57,33.19Zm-26.2-8.36C88.57,17,79.27,9.52,74,4.4A84.51,84.51,0,0,0,43.71,2.75a51.65,51.65,0,0,1,10.4,6.66c2.45,2,6.44,5,6.89,8.45.43,3.3-2.29,5.94-4.22,8.23-3.59,4.24-7.13,8.55-10.85,12.67a147.22,147.22,0,0,1,19.91,1.12q1.55.19,3.09.42a.75.75,0,0,1,.18-.27C74.2,35.19,79.45,30.76,83.37,24.83Zm-27.9,0c2.2-2.64,2.89-3,2.23-6.81-.61-3.49-1.13-4-3.58-6.22A51.41,51.41,0,0,0,49.75,8.2a62.54,62.54,0,0,0-8.47-5.06c-.89.15-1.78.32-2.66.52C44.26,6.72,54,11,53.51,18.26c-.3,4.25-3.47,7.93-5.93,11.16A79.7,79.7,0,0,1,39.19,39l.75,0c1.32-.08,2.64-.12,4-.16a1,1,0,0,1,.2-.56c2.44-3.06,5-6,7.57-9C52.93,27.77,54.22,26.29,55.47,24.79Zm-5.31-2.16c5.28-9.67-6.92-14-13.29-18.27a.77.77,0,0,1-.23-.25c-1.25.32-2.49.67-3.72,1.06A58.16,58.16,0,0,0,15.74,14c4.67,1.91,13.76,5.94,13,11.8-.44,3.5-4.28,6.72-6.42,9.13-1.69,1.9-3.79,5.25-6.08,7.25,7-1,13.9-2.4,21-3a.77.77,0,0,1,.2-.85C42.06,33.63,47,28.43,50.16,22.63ZM25.29,28.91c4.79-7.23-5.79-11.1-10.48-14.23-.79.62-1.55,1.26-2.3,1.92,4.65,1.93,11.43,3.27,10.38,9.65-1,6-6.78,11.78-10.87,16.26.34,0,.69,0,1,0v0a.87.87,0,0,1,.84-.85h.16c2.09-1.41,4.16-4.69,5.73-6.45C21.58,33.14,23.79,31.17,25.29,28.91Zm-5.11-.34c3.72-7.61-4.34-7.86-8.6-11.09-.39.36-.79.72-1.17,1.1C6.6,22.4,2.27,27.51,2,33.16s3.37,8.48,7.88,9.18a.82.82,0,0,1,.12-.2C13.69,38,17.7,33.65,20.18,28.57Z"/><path class="cls-2" d="M117,56.45c1.64.68,3.34,1.83,2.81,3.93a3.3,3.3,0,0,1-3.29,2.34.85.85,0,0,0-.56-.06l-.18,0a.69.69,0,0,0-.68,1.11.84.84,0,0,0-.22,1.06c2.44,4.18-1.95,8.38-6.16,6.48a.64.64,0,0,0-.49,0,3.69,3.69,0,0,0-.76-.18c-1-.13-1.19,1.51-.23,1.75s-.34,3.45-.89,4.27A9,9,0,0,1,101,80.59c-2.45.67-8.87,1.28-10.87-1a.82.82,0,0,0-1.54.14c-1,4.29-5.45,4.75-8,1.71h0a.78.78,0,0,0-1.52-.21c-2.32,8.06-9.58,7-15.37,3.36a.48.48,0,0,0-.39-.08.8.8,0,0,0-1.21,0c-2.87,2.93-7,2.38-8.81-1.14a.91.91,0,0,0-1.4-.18c-3.32,2.73-6.86,1.76-9-1.28l-.1-.14c-.07-.1-.14-.19-.2-.29a.57.57,0,0,0-1,0,1.2,1.2,0,0,0-.21.13C36.56,86,26.91,86.23,24.49,79a.63.63,0,0,0-.78-.44.72.72,0,0,0-.8,0c-3.56,2-7.46.74-8.53-3.3a.82.82,0,0,0-1-.58C10,76,7.48,72.84,9,69.75a.6.6,0,0,0-.41-.89.88.88,0,0,0-.81-.33C5.05,69,3.14,66.89,3.13,64.2,3.13,62,4.22,60,5.05,58a.56.56,0,0,0,0-.28.81.81,0,0,0-.49-1.4c-2.72-1.55-3.19-3.21-1.4-5A8.35,8.35,0,0,1,5,49.91a.9.9,0,0,0-.45-1.66C1,48,2.94,44,4.05,42.33a11,11,0,0,0,5.68,2.19c4.18.42,8.37-.74,12.45-1.49a139.45,139.45,0,0,1,17.76-2.1c25.52-1.38,50.23,4.41,73.24,15.25a.79.79,0,0,0,1.1-.91,1,1,0,0,0,1.66-.71c0-3.33,1.27-6.2,2.52-9.11,2.52,3.1,2.48,6.92-.7,9.53a3.47,3.47,0,0,0-.56,0A.76.76,0,0,0,117,56.45ZM103.89,69.21a4.77,4.77,0,0,0,1.87-6.2c-.38-.77-1.72-.22-1.4.6A3.44,3.44,0,0,1,103.15,68a3.25,3.25,0,0,1-3.76-.49,2.14,2.14,0,0,0-.41-.54.68.68,0,0,0-.3-.16c-.45-.49-1.28.2-.94.78a4,4,0,0,0,.5.67,2.38,2.38,0,0,1-1.67,3.1,4.66,4.66,0,0,1-2.1.15c-.77-.1-2.59-.77-1.94-1.94a.4.4,0,0,0-.69-.39,1.89,1.89,0,0,0,.64,2.55,4.86,4.86,0,0,0,3.83.86,4,4,0,0,0,3.12-2.2,3.81,3.81,0,0,0,.29-1A4.64,4.64,0,0,0,103.89,69.21Zm-8.68-8.28a.74.74,0,0,0,0-1.47c-2.65-.27-5.31-.46-8-.62a51.85,51.85,0,0,0,6.67-3.2.8.8,0,0,0-.61-1.45c-3.68,1.09-7.23,3-10.75,4.55-1,.41-.38,1.77.49,1.81C87.09,60.75,91.15,60.94,95.21,60.93ZM93.1,66.47c2.79-.24,2.86-4.56,0-4.42a84.54,84.54,0,0,0-8.57.83c-2.28.36-1.64,3.87.53,3.92A77.09,77.09,0,0,0,93.1,66.47ZM78,45.87a.7.7,0,0,0-1.34-.37,2.06,2.06,0,0,1-3.65.78.59.59,0,0,0-.23-.28,1.25,1.25,0,0,1-.08-.12c-.29-.46-1.11-.16-.92.39l0,.09a.42.42,0,0,0,0,.16c-.18,1.5-.86,3.09-2.63,3.16a2.82,2.82,0,0,1-2.73-2.48c.06-.08.14-.16.19-.24a.57.57,0,0,0-.58-.86.43.43,0,0,0-.59.26c-.83.53-1.5,1.32-2.57,1.35s-2.14-1.23-1-2a.42.42,0,0,0-.32-.76c-1.78.29-1.65,2.77-.39,3.62a3.83,3.83,0,0,0,4.31-.49,4,4,0,0,0,3.64,3,4.3,4.3,0,0,0,4-3.16A3.27,3.27,0,0,0,78,45.87ZM66,68c2.71-.39,4.3-3.78,3.27-6.21-.31-.73-1.56-.36-1.5.41.12,1.48.1,3.2-1.43,4a2.19,2.19,0,0,1-3-2.55.61.61,0,0,0-.75-.74.79.79,0,0,0-1.1.2c-1,1.41-1.62,3.77-3.8,3.63-2.41-.17-2.8-2.94-1.23-4.38.55-.5-.19-1.49-.8-1A3.87,3.87,0,0,0,56.19,68c2.37,1.1,4.64-.44,5.86-2.5A3.78,3.78,0,0,0,66,68Zm-27.74-.51a2,2,0,0,0-.48-3.63c-1.44-.39-2.95,0-4.43,0s-3,0-4.58,0c-2.78,0-2.62,3.91,0,4.22C31.53,68.41,35.71,68.86,38.24,67.48Zm-1-6.86c.8-.08,1.39-1.3.47-1.72-2-.92-4-1.81-6-2.71l-2.8-1.25a22.64,22.64,0,0,1-2.13-.86.81.81,0,0,0-.08-.25s-.05-.11-.08-.17a.93.93,0,0,0-1.25-.32l-.21.13a1,1,0,0,0-.34,1.27c.62,1.38,3.46,2,4.73,2.55l4.24,1.88A68.9,68.9,0,0,0,26,60.31a.65.65,0,0,0,.17,1.27C29.84,61.58,33.56,61,37.21,60.62ZM24.6,69.3a.85.85,0,0,0-1.46-.86,3.28,3.28,0,0,1-4.85,1A3.39,3.39,0,0,1,18,65,3.76,3.76,0,0,0,19,63.54c.29-.75-.84-1.13-1.24-.52-.7,1-1.84,2.08-3.18,1.4a1.62,1.62,0,0,1,.57-3.12.52.52,0,0,0,0-1c-2.65-.36-3.77,3.06-2,4.77a3.34,3.34,0,0,0,2.94.9,4.62,4.62,0,0,0,1.2,4.67A4.88,4.88,0,0,0,24.6,69.3Z"/><path class="cls-3" d="M115.54,25.33a18.27,18.27,0,0,1,2.11,16.84C116.09,46.36,114,50,114,54.56a.91.91,0,0,0,.09.41.87.87,0,0,0-.11-.09c-2.75-1.49-5.55-2.85-8.4-4.12,3.93-4,8.84-8.61,10.86-13.83s-.56-9.39-2.59-13.91A23.16,23.16,0,0,1,115.54,25.33Z"/><path class="cls-4" d="M111.79,20.91c1.46,5.56,5.46,10.28,2.71,16.17-2.31,4.93-7,8.88-10.56,13-1.8-.77-3.62-1.52-5.46-2.21,4.78-4.11,11-9.29,13.16-15.21a11.77,11.77,0,0,0,.39-6.75c-.66-2.86-3.31-5.39-4-8.13a33.42,33.42,0,0,1,3.78,3.11Z"/><path class="cls-3" d="M107.58,20c2.3,4.39,4.29,8.19,2,13.18-2.56,5.57-8.63,9.61-12.73,14.06a138.07,138.07,0,0,0-20.3-5.62l0-.12a.8.8,0,0,0,.71-.2,80.28,80.28,0,0,0,9.58-10.1c1.92-2.32,4.35-4.9,5.18-7.87,1.82-6.55-4.48-11.12-7.76-16.12,1.21.39,2.4.79,3.59,1.21,6.15,2.18,13.13,4.68,19,8.5C106.52,18.25,106.79,18.51,107.58,20Z"/><path class="cls-1" d="M105.76,63a4.77,4.77,0,0,1-1.87,6.2,4.64,4.64,0,0,1-4.17.08,3.81,3.81,0,0,1-.29,1,4,4,0,0,1-3.12,2.2,4.86,4.86,0,0,1-3.83-.86,1.89,1.89,0,0,1-.64-2.55.4.4,0,0,1,.69.39c-.65,1.17,1.17,1.84,1.94,1.94a4.66,4.66,0,0,0,2.1-.15,2.38,2.38,0,0,0,1.67-3.1,4,4,0,0,1-.5-.67c-.34-.58.49-1.27.94-.78a.68.68,0,0,1,.3.16,2.14,2.14,0,0,1,.41.54,3.25,3.25,0,0,0,3.76.49,3.44,3.44,0,0,0,1.21-4.34C104,62.79,105.38,62.24,105.76,63Z"/><path class="cls-1" d="M95.21,59.46a.74.74,0,0,1,0,1.47c-4.06,0-8.12-.18-12.17-.38-.87,0-1.45-1.4-.49-1.81,3.52-1.53,7.07-3.46,10.75-4.55a.8.8,0,0,1,.61,1.45,51.85,51.85,0,0,1-6.67,3.2C89.9,59,92.56,59.19,95.21,59.46Z"/><path class="cls-5" d="M93.1,62.05c2.86-.14,2.79,4.18,0,4.42a77.09,77.09,0,0,1-8,.33c-2.17,0-2.81-3.56-.53-3.92A84.54,84.54,0,0,1,93.1,62.05Z"/><path class="cls-4" d="M82.48,6.65C85,12.5,92.71,17.05,89.78,24c-2.6,6.19-9.17,11.34-13.66,16.17a.8.8,0,0,0,.44,1.34l0,.12q-2.76-.56-5.55-1a53.39,53.39,0,0,0,9.25-8.71c2.4-2.76,5.41-6,6.56-9.51,2.13-6.55-4.91-13-10-17.35Q79.64,5.78,82.48,6.65Z"/><path class="cls-3" d="M74,4.4C79.27,9.52,88.57,17,83.37,24.83,79.45,30.76,74.2,35.19,69.11,40a.75.75,0,0,0-.18.27q-1.55-.22-3.09-.42a147.22,147.22,0,0,0-19.91-1.12c3.72-4.12,7.26-8.43,10.85-12.67,1.93-2.29,4.65-4.93,4.22-8.23-.45-3.48-4.44-6.42-6.89-8.45a51.65,51.65,0,0,0-10.4-6.66A84.51,84.51,0,0,1,74,4.4Z"/><path class="cls-1" d="M76.7,45.5a.7.7,0,0,1,1.34.37,3.27,3.27,0,0,1-4.89,2.05,4.3,4.3,0,0,1-4,3.16,4,4,0,0,1-3.64-3,3.83,3.83,0,0,1-4.31.49c-1.26-.85-1.39-3.33.39-3.62a.42.42,0,0,1,.32.76c-1.18.76-.13,2,1,2s1.74-.82,2.57-1.35a.43.43,0,0,1,.59-.26.57.57,0,0,1,.58.86c-.05.08-.13.16-.19.24a2.82,2.82,0,0,0,2.73,2.48c1.77-.07,2.45-1.66,2.63-3.16a.42.42,0,0,1,0-.16l0-.09c-.19-.55.63-.85.92-.39a1.25,1.25,0,0,0,.08.12.59.59,0,0,1,.23.28A2.06,2.06,0,0,0,76.7,45.5Z"/><path class="cls-1" d="M69.25,61.78c1,2.43-.56,5.82-3.27,6.21a3.78,3.78,0,0,1-3.93-2.49c-1.22,2.06-3.49,3.6-5.86,2.5a3.87,3.87,0,0,1-.57-6.68c.61-.45,1.35.54.8,1-1.57,1.44-1.18,4.21,1.23,4.38,2.18.14,2.8-2.22,3.8-3.63a.79.79,0,0,1,1.1-.2.61.61,0,0,1,.75.74,2.19,2.19,0,0,0,3,2.55c1.53-.81,1.55-2.53,1.43-4C67.69,61.42,68.94,61.05,69.25,61.78Z"/><path class="cls-4" d="M57.7,18c.66,3.81,0,4.17-2.23,6.81-1.25,1.5-2.54,3-3.81,4.47-2.54,3-5.13,5.92-7.57,9a1,1,0,0,0-.2.56c-1.31,0-2.63.08-4,.16l-.75,0a79.7,79.7,0,0,0,8.39-9.59c2.46-3.23,5.63-6.91,5.93-11.16C54,11,44.26,6.72,38.62,3.66c.88-.2,1.77-.37,2.66-.52A62.54,62.54,0,0,1,49.75,8.2a51.41,51.41,0,0,1,4.37,3.56C56.57,14,57.09,14.49,57.7,18Z"/><path class="cls-3" d="M36.87,4.36C43.24,8.64,55.44,13,50.16,22.63c-3.17,5.8-8.1,11-12.72,15.67a.77.77,0,0,0-.2.85c-7.08.61-14,2-21,3,2.29-2,4.39-5.35,6.08-7.25,2.14-2.41,6-5.63,6.42-9.13.74-5.86-8.35-9.89-13-11.8A58.16,58.16,0,0,1,32.92,5.17c1.23-.39,2.47-.74,3.72-1.06A.77.77,0,0,0,36.87,4.36Z"/><path class="cls-5" d="M37.76,63.85a2,2,0,0,1,.48,3.63c-2.53,1.38-6.71.93-9.49.6-2.62-.31-2.78-4.26,0-4.22,1.53,0,3.05.07,4.58,0S36.32,63.46,37.76,63.85Z"/><path class="cls-1" d="M37.68,58.9c.92.42.33,1.64-.47,1.72-3.65.36-7.37,1-11,1A.65.65,0,0,1,26,60.31a68.9,68.9,0,0,1,7.75-1.14l-4.24-1.88c-1.27-.56-4.11-1.17-4.73-2.55a1,1,0,0,1,.34-1.27l.21-.13a.93.93,0,0,1,1.25.32c0,.06.05.12.08.17a.81.81,0,0,1,.08.25,22.64,22.64,0,0,0,2.13.86l2.8,1.25C33.68,57.09,35.68,58,37.68,58.9Z"/><path class="cls-4" d="M14.81,14.68c4.69,3.13,15.27,7,10.48,14.23-1.5,2.26-3.71,4.23-5.51,6.25-1.57,1.76-3.64,5-5.73,6.45h-.16a.87.87,0,0,0-.84.85v0c-.34,0-.69,0-1,0C16.11,38,21.91,32.24,22.89,26.25c1.05-6.38-5.73-7.72-10.38-9.65C13.26,15.94,14,15.3,14.81,14.68Z"/><path class="cls-1" d="M23.14,68.44a.85.85,0,0,1,1.46.86,4.88,4.88,0,0,1-7.32,1.31,4.62,4.62,0,0,1-1.2-4.67,3.34,3.34,0,0,1-2.94-.9c-1.74-1.71-.62-5.13,2-4.77a.52.52,0,0,1,0,1,1.62,1.62,0,0,0-.57,3.12c1.34.68,2.48-.36,3.18-1.4.4-.61,1.53-.23,1.24.52A3.76,3.76,0,0,1,18,65a3.39,3.39,0,0,0,.33,4.35A3.28,3.28,0,0,0,23.14,68.44Z"/><path class="cls-3" d="M11.58,17.48c4.26,3.23,12.32,3.48,8.6,11.09C17.7,33.65,13.69,38,10,42.14a.82.82,0,0,0-.12.2c-4.51-.7-8.19-3.41-7.88-9.18S6.6,22.4,10.41,18.58C10.79,18.2,11.19,17.84,11.58,17.48Z"/></g></g></svg>